{"asset":{"generator":"Khronos glTF Spline I/O v0.0.1","version":"2.0"},"scenes":[{"nodes":[0]}],"nodes":[{"name":"Glass - Circles","children":[1,2,3,4]},{"name":"Directional Light","translation":[18.54182746897986,196.55020093492345,491.48717671575287],"rotation":[-0.18961021471810435,0.008923757344561642,-0.046156934615785634,0.9807333329790946],"extensions":{"KHR_lights_punctual":{"light":0}}},{"name":"Shape","matrix":[1,0,0,0,0,1,-6.123233995736766e-17,0,0,6.123233995736766e-17,1,0,341.6601562499999,83.9765625,0,1],"mesh":0},{"name":"Default Camera","camera":0,"translation":[421.5966165805066,-431.22391187029314,801.1818029609373],"rotation":[0.19402383949000063,0.2323846674450845,-0.04736662683900557,0.951897325717375],"children":[5]},{"name":"Rectangle 2","matrix":[1,0,0,0,0,1,0,0,0,0,1,0,-18.395872197866993,-46,6.793016845964303,1],"mesh":1},{"name":"Default Directional Light","translation":[850000,1300000,1000000],"rotation":[-0.45895513091666534,0.1367267597249462,-0.25064115022945466,0.8413352451859125],"extensions":{"KHR_lights_punctual":{"light":1}}}],"cameras":[{"type":"orthographic","orthographic":{"xmag":2240,"ymag":1235,"zfar":50000,"znear":-50000}}],"meshes":[{"primitives":[{"attributes":{"POSITION":1,"NORMAL":2,"TEXCOORD_0":3},"indices":0}]},{"primitives":[{"attributes":{"POSITION":5,"NORMAL":6,"TEXCOORD_0":7},"indices":4}]}],"buffers":[{"uri":"data:application/octet-stream;base64,","byteLength":4400},{"uri":"data:application/octet-stream;base64,","byteLength":70800}],"bufferViews":[{"buffer":0,"byteOffset":0,"byteLength":1200,"target":34963},{"buffer":0,"byteOffset":1200,"byteLength":1200,"target":34962},{"buffer":0,"byteOffset":2400,"byteLength":1200,"target":34962},{"buffer":0,"byteOffset":3600,"byteLength":800,"target":34962},{"buffer":1,"byteOffset":0,"byteLength":7824,"target":34963},{"buffer":1,"byteOffset":7824,"byteLength":20992,"target":34962},{"buffer":1,"byteOffset":28816,"byteLength":20992,"target":34962},{"buffer":1,"byteOffset":49808,"byteLength":20992,"target":34962}],"accessors":[{"bufferView":0,"byteOffset":0,"componentType":5125,"count":300,"type":"SCALAR","min":[0],"max":[0]},{"bufferView":1,"byteOffset":0,"componentType":5126,"count":100,"type":"VEC3","min":[0,0,0],"max":[0,0,0]},{"bufferView":2,"byteOffset":0,"componentType":5126,"count":100,"type":"VEC3","min":[0,0,0],"max":[0,0,0]},{"bufferView":3,"byteOffset":0,"componentType":5126,"count":100,"type":"VEC2","min":[0,0],"max":[0,0]},{"bufferView":4,"byteOffset":0,"componentType":5125,"count":1956,"type":"SCALAR","min":[0],"max":[655]},{"bufferView":5,"byteOffset":0,"componentType":5126,"count":656,"type":"VEC3","min":[-207,-160,0],"max":[207,160,24]},{"bufferView":6,"byteOffset":0,"componentType":5126,"count":656,"type":"VEC3","min":[-1,-1,-1],"max":[1,1,1]},{"bufferView":7,"byteOffset":0,"componentType":5126,"count":656,"type":"VEC2","min":[0,0],"max":[1,1]}],"extensions":{"KHR_lights_punctual":{"lights":[{"type":"directional","name":"Directional Light","color":[1,1,1],"intensity":0.6},{"type":"directional","name":"Default Directional Light","color":[1,1,1],"intensity":0.75}]}},"extensionsUsed":["KHR_lights_punctual"]}