<?xml version="1.0" standalone="no"?>
<!DOCTYPE svg PUBLIC "-//W3C//DTD SVG 20010904//EN"
 "http://www.w3.org/TR/2001/REC-SVG-20010904/DTD/svg10.dtd">
<svg version="1.0" xmlns="http://www.w3.org/2000/svg"
 width="378.000000pt" height="378.000000pt" viewBox="0 0 378.000000 378.000000"
 preserveAspectRatio="xMidYMid meet">
<metadata>
Created by potrace 1.14, written by Peter Selinger 2001-2017
</metadata>
<g transform="translate(0.000000,378.000000) scale(0.100000,-0.100000)"
fill="#000000" stroke="none">
<path d="M1467 3773 c-2 -5 -4 -74 -3 -155 1 -82 -1 -148 -4 -148 -3 0 -39 58
-80 130 -61 106 -79 130 -97 130 -27 0 -31 -33 -9 -65 7 -11 24 -38 36 -60 12
-22 44 -78 70 -125 l49 -85 6 -310 c3 -170 8 -338 11 -373 l5 -63 -63 40 c-35
21 -153 94 -263 161 -110 67 -227 138 -260 158 -55 35 -64 46 -136 170 -86
148 -104 173 -125 165 -24 -9 -16 -41 28 -116 23 -40 57 -98 75 -130 l33 -58
-33 19 c-118 72 -230 132 -246 132 -21 0 -33 -21 -23 -37 7 -11 230 -143 241
-143 21 0 79 -69 137 -165 37 -60 118 -194 181 -297 62 -103 116 -193 118
-201 4 -10 -3 -13 -32 -11 -21 1 -186 5 -368 8 l-330 7 -148 85 c-158 89 -187
99 -187 61 0 -19 22 -36 130 -97 71 -41 127 -76 125 -79 -3 -2 -69 -6 -148 -7
-78 -1 -145 -2 -149 -3 -5 0 -8 -12 -8 -26 l0 -25 175 0 174 0 158 -86 c87
-48 192 -105 233 -127 41 -22 98 -53 125 -69 28 -16 69 -38 93 -50 23 -12 42
-24 42 -27 0 -6 -18 -16 -160 -93 -67 -37 -295 -162 -437 -240 -51 -28 -52
-28 -228 -28 l-176 0 3 -27 3 -28 158 0 c86 0 157 -1 157 -2 0 -1 -60 -36
-132 -78 -73 -42 -137 -80 -141 -85 -11 -10 1 -50 15 -50 5 0 80 40 166 89
l157 90 335 7 c184 3 345 8 357 9 12 1 26 -1 32 -4 7 -4 -65 -131 -182 -322
l-192 -314 -148 -85 c-82 -47 -152 -92 -157 -100 -9 -15 5 -40 23 -40 9 0 139
73 257 144 l35 20 -24 -39 c-142 -237 -159 -280 -116 -280 15 0 42 38 111 155
103 177 63 142 409 351 110 67 228 138 262 159 l61 39 -3 -57 c-2 -31 -6 -199
-10 -372 l-6 -315 -90 -156 c-49 -86 -89 -164 -89 -173 0 -27 31 -32 50 -8 9
11 48 75 85 141 38 66 71 118 74 116 2 -3 5 -76 5 -163 l1 -157 28 -3 27 -3 0
186 0 186 178 324 c97 179 179 325 182 325 3 0 85 -146 183 -325 l177 -324 0
-186 0 -186 28 3 27 3 0 167 c0 92 3 164 7 160 6 -6 83 -138 130 -222 11 -19
28 -43 37 -53 17 -17 19 -17 35 -2 9 9 15 20 13 23 -2 4 -45 79 -95 167 l-91
160 -6 315 c-4 173 -8 341 -10 372 l-4 58 42 -27 c23 -15 143 -88 267 -163
368 -223 322 -183 429 -369 51 -88 96 -161 101 -161 17 0 40 13 40 22 0 9
-124 234 -159 287 l-15 24 45 -25 c25 -14 74 -43 110 -64 127 -77 158 -91 169
-74 6 8 9 21 7 28 -1 7 -74 54 -162 105 l-159 92 -78 125 c-43 69 -101 163
-129 210 -27 47 -79 132 -114 190 -63 104 -66 120 -22 115 12 -1 173 -6 357
-9 l335 -7 155 -88 c187 -106 187 -106 200 -81 8 16 5 23 -22 43 -18 13 -58
38 -88 54 -99 54 -170 97 -170 103 0 3 73 5 162 5 l163 0 3 28 3 27 -186 0
-186 0 -167 92 c-92 51 -196 108 -233 128 -210 113 -249 135 -249 140 0 3 146
85 325 183 l325 177 185 0 185 0 0 24 c0 31 -16 34 -192 32 -76 0 -138 2 -138
5 0 3 54 36 121 74 66 37 130 76 141 85 24 19 19 50 -8 50 -9 0 -87 -40 -173
-89 l-156 -90 -330 -6 c-181 -4 -347 -8 -367 -10 -21 -1 -38 0 -38 2 0 8 340
570 372 615 10 15 79 62 154 104 75 43 145 85 157 94 23 19 18 50 -9 50 -14 0
-196 -99 -274 -149 l-25 -16 21 35 c12 19 34 57 50 85 16 27 37 63 47 80 49
84 52 94 35 111 -14 15 -17 15 -34 -3 -11 -10 -54 -80 -97 -155 -84 -146 -87
-150 -154 -188 -72 -41 -438 -264 -443 -271 -7 -8 -116 -69 -124 -69 -4 0 -4
21 -2 48 3 26 8 191 11 367 l6 320 72 125 c104 183 108 191 96 207 -27 31 -29
28 -158 -194 -23 -40 -43 -73 -44 -73 -1 0 -2 71 -2 157 l0 158 -27 3 -28 3 0
-175 0 -176 -177 -325 c-98 -179 -180 -325 -183 -325 -3 0 -85 146 -182 325
l-178 324 0 176 0 175 -24 0 c-14 0 -27 -3 -29 -7z m809 -435 c-3 -18 -8 -188
-11 -378 l-7 -345 -80 -140 c-45 -77 -90 -156 -102 -176 -12 -20 -52 -91 -91
-159 l-70 -122 -3 342 -2 343 182 333 c100 184 183 334 185 334 1 0 1 -15 -1
-32z m-602 -311 l176 -324 0 -344 c0 -339 0 -344 -19 -314 -20 33 -232 401
-292 506 l-37 65 -7 345 c-4 189 -8 354 -10 367 -2 12 0 22 4 22 5 0 87 -145
185 -323z m-852 -59 c8 -7 23 -18 33 -25 34 -21 166 -97 186 -108 10 -5 19
-13 19 -17 0 -5 4 -8 9 -8 4 0 48 -25 97 -55 49 -30 132 -80 185 -111 81 -48
101 -65 127 -108 16 -28 96 -165 176 -304 132 -228 143 -252 114 -234 -27 16
-146 85 -333 192 -16 9 -54 31 -83 49 -29 17 -55 31 -57 31 -2 0 -25 13 -51
29 -41 26 -63 57 -182 253 -74 123 -163 269 -198 326 -62 101 -68 114 -42 90z
m2125 -5 c-3 -5 -69 -114 -147 -243 -79 -129 -165 -270 -191 -314 l-48 -79
-138 -80 c-211 -121 -394 -228 -433 -250 -22 -13 -31 -16 -24 -7 6 8 25 40 41
70 17 30 92 161 168 291 l137 236 96 57 c54 31 149 88 212 127 63 39 157 96
207 126 51 30 96 59 99 64 3 5 10 9 15 9 6 0 8 -3 6 -7z m-2162 -677 c198 -4
369 -10 380 -13 11 -3 65 -32 120 -63 55 -32 119 -68 141 -81 23 -13 108 -62
189 -109 l148 -85 -343 -3 -342 -2 -87 47 c-47 25 -102 55 -121 66 -19 11 -73
40 -120 65 -47 25 -131 71 -188 103 -57 33 -107 59 -111 59 -4 0 -16 7 -27 16
-10 8 -14 13 -9 11 6 -3 172 -8 370 -11z m2560 4 c-3 -5 -10 -10 -14 -10 -4 0
-64 -31 -132 -68 -68 -38 -160 -88 -204 -112 -44 -24 -93 -51 -110 -60 -16 -9
-69 -38 -117 -64 l-86 -46 -342 2 -341 3 255 148 c141 81 277 159 304 172 46
24 52 24 412 31 201 3 367 8 369 10 8 8 12 4 6 -6z m-1586 -424 c-4 -5 -213
-126 -444 -258 l-150 -86 -365 -7 c-201 -4 -369 -10 -374 -13 -5 -3 -6 0 -3 6
4 5 73 46 155 90 81 44 174 94 207 113 33 18 112 61 175 96 l115 63 344 0
c189 0 342 -2 340 -4z m1240 -168 c174 -94 325 -178 336 -186 l20 -14 -20 5
c-11 3 -179 8 -374 12 -195 4 -364 10 -375 15 -12 4 -61 31 -111 60 -49 28
-130 75 -180 103 -49 29 -98 56 -107 62 -37 22 -135 78 -160 92 -16 8 -28 16
-28 19 0 2 154 4 342 4 l341 0 316 -172z m-1325 -95 c-70 -120 -148 -256 -175
-304 -47 -81 -53 -87 -126 -129 -43 -24 -79 -47 -81 -52 -2 -4 -7 -8 -11 -8
-8 0 -426 -251 -446 -268 -34 -28 -31 -15 13 54 43 69 139 228 303 498 l47 78
153 89 c84 49 153 89 155 89 1 0 66 38 145 85 79 46 145 84 146 85 1 0 -54
-98 -123 -217z m546 68 c135 -78 252 -146 260 -151 8 -6 30 -18 47 -27 23 -12
51 -47 96 -122 36 -58 115 -189 177 -291 157 -258 153 -250 143 -250 -5 0 -14
5 -20 11 -6 6 -61 41 -121 77 -490 296 -488 294 -520 347 -79 131 -321 555
-314 552 4 -3 117 -68 252 -146z m-542 -890 c-205 -378 -199 -367 -193 -315 2
21 7 192 10 379 l7 340 156 270 c85 149 163 282 171 297 15 25 16 2 19 -314
l2 -341 -172 -316z m387 739 c81 -140 157 -273 170 -295 23 -40 24 -48 30
-395 3 -195 8 -366 11 -380 5 -24 5 -24 -9 -5 -7 11 -91 162 -185 336 l-172
315 0 344 c0 189 2 341 4 339 2 -2 70 -119 151 -259z"/>
</g>
</svg>
